<svg width="16" height="6" viewBox="0 0 16 6" fill="none" xmlns="http://www.w3.org/2000/svg">
<path d="M14 1.3334L13.3334 0H10L9.3334 1.3334H6.6666L6 0H2.6666L2 1.3334C1.26699 1.3334 0.666599 1.93359 0.666599 2.6666V5.3334H15.3334V2.6666C15.3334 1.93359 14.733 1.3334 14 1.3334ZM4 4C3.6314 4 3.3334 3.7018 3.3334 3.3334C3.3334 2.9648 3.6314 2.6666 4 2.6666C4.36859 2.6666 4.6666 2.9648 4.6666 3.3334C4.6666 3.7018 4.36859 4 4 4ZM6.6666 4C6.2982 4 6 3.7018 6 3.3334C6 2.9648 6.2982 2.6666 6.6666 2.6666C7.03519 2.6666 7.3334 2.9648 7.3334 3.3334C7.3334 3.7018 7.03519 4 6.6666 4ZM9.3334 4C8.9648 4 8.6666 3.7018 8.6666 3.3334C8.6666 2.9648 8.9648 2.6666 9.3334 2.6666C9.7018 2.6666 10 2.9648 10 3.3334C10 3.7018 9.7018 4 9.3334 4ZM12 4C11.6314 4 11.3334 3.7018 11.3334 3.3334C11.3334 2.9648 11.6314 2.6666 12 2.6666C12.3686 2.6666 12.6666 2.9648 12.6666 3.3334C12.6666 3.7018 12.3686 4 12 4Z" fill="black"/>
</svg>
