<svg width="17" height="16" viewBox="0 0 17 16" fill="none" xmlns="http://www.w3.org/2000/svg">
<path d="M7.5625 15.0312C8.33915 15.0312 8.96875 14.4017 8.96875 13.625C8.96875 12.8483 8.33915 12.2188 7.5625 12.2188C6.78585 12.2188 6.15625 12.8483 6.15625 13.625C6.15625 14.4017 6.78585 15.0312 7.5625 15.0312Z" fill="white"/>
<path d="M12.2812 15.0312C13.0578 15.0312 13.6874 14.4017 13.6874 13.625C13.6874 12.8483 13.0578 12.2188 12.2812 12.2188C11.5045 12.2188 10.8749 12.8483 10.8749 13.625C10.8749 14.4017 11.5045 15.0312 12.2812 15.0312Z" fill="white"/>
<path d="M0.968747 1.90628H2.92352L5.18657 9.82851L5.00907 10.1835C4.5417 11.1172 5.22016 12.2187 6.267 12.2187H14.1562C14.4153 12.2187 14.6249 12.0091 14.6249 11.75C14.6249 11.4909 14.4153 11.2812 14.1562 11.2812H6.267C5.91891 11.2812 5.69141 10.9147 5.84769 10.6028L5.97725 10.3437H14.1562C14.3654 10.3437 14.5494 10.205 14.6071 10.0036L16.4821 3.44114C16.5223 3.2997 16.494 3.14771 16.4056 3.03008C16.3168 2.91289 16.1781 2.84377 16.0312 2.84377H4.16632L3.72779 1.30887C3.67011 1.10747 3.48611 0.96875 3.27689 0.96875H0.968747C0.709655 0.96875 0.5 1.1784 0.5 1.4375C0.5 1.69659 0.709655 1.90628 0.968747 1.90628Z" fill="white"/>
</svg>
