<svg width="16" height="16" viewBox="0 0 16 16" fill="none" xmlns="http://www.w3.org/2000/svg">
<path d="M14.3862 4.6666H16V4L14.6666 3.3334C14.6666 1.49219 13.1758 0 11.3334 0C9.49422 0 8 1.49219 8 3.3334C8 5.17578 9.49422 6.6666 11.3334 6.6666C11.629 6.6666 11.9108 6.61582 12.1836 6.54359C13.6602 7.32758 14.6666 8.87898 14.6666 10.6666C14.6666 12.8764 12.875 14.6666 10.6666 14.6666H7.99941C4.31641 14.6666 1.3334 11.6796 1.3334 8L1.33262 5.3334H0V8C0 12.4154 3.58 16 7.99941 16H10.6666C13.6114 16 16 13.612 16 10.6666C16 8.67582 15.0254 6.91461 13.5306 5.82281C13.8926 5.50398 14.19 5.1152 14.3862 4.6666ZM12 3.3334C11.6322 3.3334 11.3334 3.0352 11.3334 2.6666C11.3334 2.2982 11.6322 2 12 2C12.3686 2 12.6666 2.2982 12.6666 2.6666C12.6666 3.0352 12.3686 3.3334 12 3.3334Z" fill="black"/>
</svg>
