<svg width="16" height="16" viewBox="0 0 16 16" fill="none" xmlns="http://www.w3.org/2000/svg">
<g opacity="0.5" clip-path="url(#clip0_256_2196)">
<path d="M0 5.33331V7.11118C0.736405 7.11118 1.3334 7.90691 1.3334 8.88878V10.6666H1.33261C1.33261 12.6301 2.52683 14.2221 3.99863 14.2221V16H5.33202V14.2221H10.668V16H12.0014V14.2221C13.4732 14.2205 14.6666 12.6283 14.6666 10.6666V8.88878C14.6666 7.90691 15.2636 7.11118 16 7.11118V5.33331H0Z" fill="black"/>
<path d="M3.3334 0C2.22918 0 1.3334 1.19438 1.3334 2.66667V4H2.6666V2.66667C2.6666 2.17521 2.96481 1.77786 3.3334 1.77786C3.7018 1.77786 4 2.17521 4 2.66667H5.3334C5.3334 1.19438 4.43801 0 3.3334 0Z" fill="black"/>
</g>
<defs>
<clipPath id="clip0_256_2196">
<rect width="16" height="16" fill="white"/>
</clipPath>
</defs>
</svg>
