<svg width="16" height="16" viewBox="0 0 16 16" fill="none" xmlns="http://www.w3.org/2000/svg">
<g opacity="0.5">
<path d="M12 2H4.00001C2.52739 2 1.3334 3.19398 1.3334 4.6666H2C3.83782 4.6666 5.33341 6.16199 5.33341 8V10H10.6666V8C10.6666 6.16219 12.1622 4.6666 14 4.6666H14.6666C14.6666 3.19398 13.4726 2 12 2Z" fill="black"/>
<path d="M14 6C12.8958 6 12 6.89578 12 8V11.3334H4V8C4 6.89578 3.10422 6 2 6C0.895781 6 0 6.89578 0 8V12.6666H1.3334V14H2.6666V12.6666H13.3334V14H14.6666V12.6666H16V8C16 6.89578 15.1042 6 14 6Z" fill="black"/>
</g>
</svg>
