<svg width="16" height="16" viewBox="0 0 16 16" fill="none" xmlns="http://www.w3.org/2000/svg">
<g opacity="0.5" clip-path="url(#clip0_256_2262)">
<path d="M11.5548 0.000671387C10.3282 0.000671387 9.21735 0.497973 8.41288 1.3016V1.30264L1.30203 8.41298C0.498083 9.21692 0 10.3296 0 11.557C0 14.0099 1.98941 15.9993 4.44416 15.9993C5.6715 15.9993 6.7826 15.5028 7.58602 14.6973L7.58712 14.6989L11.5558 10.7304C12.5974 9.68891 12.5974 8.00083 11.5558 6.95904C10.5148 5.91835 8.82592 5.91835 7.78418 6.95904L3.81572 10.9283L5.0727 12.1853L9.0409 8.2168C9.38832 7.86964 9.95176 7.86964 10.2987 8.2168C10.6461 8.56396 10.645 9.1263 10.2987 9.47377L6.33045 13.4422L6.32967 13.4404C5.8468 13.923 5.18019 14.2217 4.44452 14.2217C2.97157 14.2217 1.77808 13.0274 1.77808 11.5571C1.77808 10.819 2.07644 10.1524 2.55937 9.67006L9.66986 2.55936C10.1527 2.07675 10.8199 1.77807 11.5561 1.77807C13.028 1.77807 14.2225 2.97235 14.2225 4.44451C14.2215 5.1807 13.9236 5.84731 13.4418 6.32967L14.6991 7.58664C15.5017 6.7827 15.999 5.67186 16 4.44451C15.9997 1.99009 14.0092 0.000671387 11.5548 0.000671387Z" fill="black"/>
</g>
<defs>
<clipPath id="clip0_256_2262">
<rect width="16" height="16" fill="white"/>
</clipPath>
</defs>
</svg>
