<svg width="16" height="16" viewBox="0 0 16 16" fill="none" xmlns="http://www.w3.org/2000/svg">
<path d="M14.6666 9.15527e-05H9.12486C8.75826 9.15527e-05 8.24588 0.212473 7.98686 0.471299L0.389101 8.06902C-0.129685 8.58722 -0.129685 9.43683 0.389101 9.9544L6.04625 15.6114C6.56386 16.1296 7.41265 16.1296 7.93104 15.6108L15.5288 8.01422C15.7876 7.75543 16 7.24223 16 6.87641V1.33348C16 0.600283 15.3998 9.15527e-05 14.6666 9.15527e-05ZM11.9998 5.33346C11.2634 5.33346 10.6664 4.73584 10.6664 4.00007C10.6664 3.26308 11.2634 2.66668 11.9998 2.66668C12.7362 2.66668 13.3334 3.26308 13.3334 4.00007C13.3334 4.73584 12.7362 5.33346 11.9998 5.33346Z" fill="#FAA525"/>
</svg>
