<svg width="16" height="16" viewBox="0 0 16 16" fill="none" xmlns="http://www.w3.org/2000/svg">
<g opacity="0.5" clip-path="url(#clip0_256_2169)">
<path d="M14 0V3.05199C14 3.7884 13.403 4.38539 12.6666 4.38539C11.9302 4.38539 11.3334 3.7884 11.3334 3.05199V0C10.1576 0.515 9.33341 1.68621 9.33341 3.05199C9.33341 4.13859 9.862 5.095 10.6666 5.70379V14C10.6666 15.1042 11.5624 16 12.6666 16C13.7708 16 14.6666 15.1042 14.6666 14V5.70379C15.472 5.095 16 4.13859 16 3.05199C16 1.68559 15.1764 0.515 14 0Z" fill="black"/>
<path d="M9.33341 9.33339V6.6666H2C0.895783 6.6666 0 7.56179 0 8.66601L0.000585938 8.6666H0V13.3334H1.3334V15.3334C1.3334 15.7006 1.6334 16 2 16H3.3334C3.69981 16 4.00001 15.7006 4.00001 15.3334V13.3334H9.33341V10.6666H4.66661V9.33339H9.33341ZM2.66661 10.8334C2.207 10.8334 1.8334 10.4604 1.8334 9.99999C1.8334 9.53898 2.207 9.1666 2.66661 9.1666C3.12641 9.1666 3.50001 9.53898 3.50001 9.99999C3.50001 10.4604 3.12641 10.8334 2.66661 10.8334Z" fill="black"/>
<path d="M8 3.05198C8 2.45038 8.12641 1.87237 8.34121 1.33319H4.20961C3.65762 1.33319 3.15762 1.55718 2.79563 1.91921C2.61203 2.10343 2.46364 2.32339 2.36282 2.5676L1.217 5.33319H8.60438C8.21422 4.64639 8 3.8678 8 3.05198Z" fill="black"/>
</g>
<defs>
<clipPath id="clip0_256_2169">
<rect width="16" height="16" fill="white"/>
</clipPath>
</defs>
</svg>
