<svg width="14" height="17" viewBox="0 0 14 17" fill="none" xmlns="http://www.w3.org/2000/svg">
<path d="M8.2547 15.4558L8.24924 15.4808L8.24924 4.77435L11.6224 8.14007C11.7871 8.30488 12.0101 8.39529 12.2443 8.39529C12.4784 8.39529 12.7 8.30488 12.865 8.14007L13.389 7.61636C13.5537 7.45168 13.6447 7.23223 13.6447 6.99822C13.6447 6.76407 13.5543 6.54449 13.3897 6.37981L7.62069 0.610318C7.45535 0.444985 7.23512 0.354578 7.00085 0.355229C6.76527 0.354578 6.54491 0.444985 6.37984 0.610318L0.610352 6.37981C0.445799 6.5445 0.355263 6.76394 0.355263 6.99822C0.355263 7.23224 0.445929 7.45168 0.610352 7.61637L1.13432 8.14007C1.29874 8.30489 1.51832 8.39529 1.75246 8.39529C1.98648 8.39529 2.19448 8.30489 2.35903 8.14007L5.75103 4.73637L5.75103 15.4678C5.75103 15.95 6.16664 16.3552 6.64859 16.3552L7.38966 16.3552C7.87161 16.3552 8.2547 15.9381 8.2547 15.4558Z" fill="#676767"/>
</svg>
