<svg width="18" height="18" viewBox="0 0 18 18" fill="none" xmlns="http://www.w3.org/2000/svg">
<g opacity="0.3" clip-path="url(#clip0_257_882)">
<path d="M3.75 0H0.75C0.336 0 0 0.336 0 0.75V3.75C0 4.164 0.336 4.5 0.75 4.5H3.75C4.164 4.5 4.5 4.164 4.5 3.75V0.75C4.5 0.336 4.164 0 3.75 0Z" fill="#494949"/>
<path d="M17.2499 0H6.74988C6.33588 0 5.99988 0.336 5.99988 0.75V3.75C5.99988 4.164 6.33588 4.5 6.74988 4.5H17.2499C17.6639 4.5 17.9999 4.164 17.9999 3.75V0.75C17.9999 0.336 17.6639 0 17.2499 0Z" fill="#494949"/>
<path d="M3.75 6.75H0.75C0.336 6.75 0 7.086 0 7.5V10.5C0 10.914 0.336 11.25 0.75 11.25H3.75C4.164 11.25 4.5 10.914 4.5 10.5V7.5C4.5 7.086 4.164 6.75 3.75 6.75Z" fill="#494949"/>
<path d="M17.2499 6.75H6.74988C6.33588 6.75 5.99988 7.086 5.99988 7.5V10.5C5.99988 10.914 6.33588 11.25 6.74988 11.25H17.2499C17.6639 11.25 17.9999 10.914 17.9999 10.5V7.5C17.9999 7.086 17.6639 6.75 17.2499 6.75Z" fill="#494949"/>
<path d="M3.75 13.5H0.75C0.336 13.5 0 13.836 0 14.25V17.25C0 17.664 0.336 18 0.75 18H3.75C4.164 18 4.5 17.664 4.5 17.25V14.25C4.5 13.836 4.164 13.5 3.75 13.5Z" fill="#494949"/>
<path d="M17.2499 13.5H6.74988C6.33588 13.5 5.99988 13.836 5.99988 14.25V17.25C5.99988 17.664 6.33588 18 6.74988 18H17.2499C17.6639 18 17.9999 17.664 17.9999 17.25V14.25C17.9999 13.836 17.6639 13.5 17.2499 13.5Z" fill="#494949"/>
</g>
<defs>
<clipPath id="clip0_257_882">
<rect width="18" height="18" fill="white"/>
</clipPath>
</defs>
</svg>
