<svg width="18" height="18" viewBox="0 0 18 18" fill="none" xmlns="http://www.w3.org/2000/svg">
<g clip-path="url(#clip0_257_877)">
<path d="M0.75 9.75H7.5C7.914 9.75 8.25 10.086 8.25 10.5V17.25C8.25 17.664 7.914 18 7.5 18H0.75C0.336 18 0 17.664 0 17.25V10.5C0 10.086 0.336 9.75 0.75 9.75Z" fill="#494949"/>
<path d="M17.2501 18H10.5001C10.0861 18 9.75012 17.664 9.75012 17.25V10.5C9.75012 10.086 10.0861 9.75 10.5001 9.75H17.2501C17.6641 9.75 18.0001 10.086 18.0001 10.5V17.25C18.0001 17.664 17.6641 18 17.2501 18Z" fill="#494949"/>
<path d="M0.75 -1.43051e-05H7.5C7.914 -1.43051e-05 8.25 0.335986 8.25 0.749987V7.5C8.25 7.914 7.914 8.25 7.5 8.25H0.75C0.336 8.25 0 7.914 0 7.5V0.749987C0 0.335986 0.336 -1.43051e-05 0.75 -1.43051e-05Z" fill="#494949"/>
<path d="M17.2501 8.25H10.5001C10.0861 8.25 9.75012 7.914 9.75012 7.5V0.749987C9.75012 0.335986 10.0861 -1.43051e-05 10.5001 -1.43051e-05H17.2501C17.6641 -1.43051e-05 18.0001 0.335986 18.0001 0.749987V7.5C18.0001 7.914 17.6641 8.25 17.2501 8.25Z" fill="#494949"/>
</g>
<defs>
<clipPath id="clip0_257_877">
<rect width="18" height="18" fill="white" transform="matrix(1 0 0 -1 0 18)"/>
</clipPath>
</defs>
</svg>
