<svg width="19" height="18" viewBox="0 0 19 18" fill="none" xmlns="http://www.w3.org/2000/svg">
<g clip-path="url(#clip0_2219_580)">
<path d="M5 0H1.25C0.836 0 0.5 0.336 0.5 0.75V4.5C0.5 4.914 0.836 5.25 1.25 5.25H5C5.414 5.25 5.75 4.914 5.75 4.5V0.75C5.75 0.336 5.414 0 5 0Z" fill="white"/>
<path d="M4.99999 6.37502H1.24999C0.835992 6.37502 0.499992 6.71102 0.499992 7.12502V10.875C0.499992 11.289 0.835992 11.625 1.24999 11.625H4.99999C5.41399 11.625 5.74999 11.289 5.74999 10.875V7.12502C5.74999 6.71102 5.41399 6.37502 4.99999 6.37502Z" fill="white"/>
<path d="M12.125 10.875V7.12502C12.125 6.71102 11.789 6.37502 11.375 6.37502H7.625C7.211 6.37502 6.875 6.71102 6.875 7.12502V10.875C6.875 11.289 7.211 11.625 7.625 11.625H11.375C11.789 11.625 12.125 11.289 12.125 10.875Z" fill="white"/>
<path d="M12.125 4.5V0.749999C12.125 0.336 11.789 0 11.375 0H7.625C7.211 0 6.875 0.336 6.875 0.749999V4.5C6.875 4.91399 7.211 5.24999 7.625 5.24999H11.375C11.789 5.24999 12.125 4.91399 12.125 4.5Z" fill="white"/>
<path d="M17.75 0H14C13.586 0 13.25 0.336 13.25 0.749999V4.5C13.25 4.91399 13.586 5.24999 14 5.24999H17.75C18.164 5.24999 18.5 4.91399 18.5 4.5V0.749999C18.5 0.336 18.164 0 17.75 0Z" fill="white"/>
<path d="M14 11.625H17.75C18.164 11.625 18.5 11.289 18.5 10.875V7.12502C18.5 6.71102 18.164 6.37502 17.75 6.37502H14C13.586 6.37502 13.25 6.71102 13.25 7.12502V10.875C13.25 11.289 13.586 11.625 14 11.625Z" fill="white"/>
<path d="M14 18H17.75C18.164 18 18.5 17.664 18.5 17.25V13.5C18.5 13.086 18.164 12.75 17.75 12.75H14C13.586 12.75 13.25 13.086 13.25 13.5V17.25C13.25 17.664 13.586 18 14 18Z" fill="white"/>
<path d="M0.499992 13.5V17.25C0.499992 17.664 0.835992 18 1.24999 18H4.99999C5.41399 18 5.74999 17.664 5.74999 17.25V13.5C5.74999 13.086 5.41399 12.75 4.99999 12.75H1.24999C0.835992 12.75 0.499992 13.086 0.499992 13.5Z" fill="white"/>
<path d="M6.875 13.5V17.25C6.875 17.664 7.211 18 7.625 18H11.375C11.789 18 12.125 17.664 12.125 17.25V13.5C12.125 13.086 11.789 12.75 11.375 12.75H7.625C7.211 12.75 6.875 13.086 6.875 13.5Z" fill="white"/>
</g>
<defs>
<clipPath id="clip0_2219_580">
<rect width="18" height="18" fill="white" transform="translate(0.5)"/>
</clipPath>
</defs>
</svg>
