<svg width="16" height="16" viewBox="0 0 16 16" fill="none" xmlns="http://www.w3.org/2000/svg">
<path d="M9.46586 8.01235L15.6959 1.78208C16.1014 1.37682 16.1014 0.721584 15.6959 0.31633C15.2907 -0.0889232 14.6355 -0.0889232 14.2302 0.31633L7.99992 6.5466L1.76983 0.31633C1.36439 -0.0889232 0.709337 -0.0889232 0.304083 0.31633C-0.101361 0.721584 -0.101361 1.37682 0.304083 1.78208L6.53417 8.01235L0.304083 14.2426C-0.101361 14.6479 -0.101361 15.3031 0.304083 15.7084C0.506045 15.9105 0.771596 16.0121 1.03696 16.0121C1.30232 16.0121 1.56768 15.9105 1.76983 15.7084L7.99992 9.47809L14.2302 15.7084C14.4324 15.9105 14.6977 16.0121 14.9631 16.0121C15.2284 16.0121 15.4938 15.9105 15.6959 15.7084C16.1014 15.3031 16.1014 14.6479 15.6959 14.2426L9.46586 8.01235Z" fill="#676767"/>
</svg>
