<svg width="16" height="16" viewBox="0 0 16 16" fill="none" xmlns="http://www.w3.org/2000/svg">
<path d="M15.464 14.1694L12.4911 11.1965C13.3921 10.0171 13.8862 8.58647 13.8864 7.07686C13.8864 5.25762 13.1779 3.54715 11.8913 2.26078C10.6049 0.974398 8.89466 0.265862 7.07521 0.265862C5.25597 0.265862 3.5455 0.974398 2.25912 2.26078C-0.396434 4.91656 -0.396434 9.2376 2.25912 11.8929C3.5455 13.1795 5.25597 13.8881 7.07521 13.8881C8.58482 13.8879 10.0154 13.3937 11.1949 12.4928L14.1677 15.4656C14.3465 15.6446 14.5813 15.7342 14.8158 15.7342C15.0504 15.7342 15.2851 15.6446 15.464 15.4656C15.822 15.1078 15.822 14.5272 15.464 14.1694ZM3.55535 10.5967C1.61459 8.65596 1.61482 5.49798 3.55535 3.557C4.49551 2.61706 5.74564 2.09919 7.07521 2.09919C8.405 2.09919 9.6549 2.61706 10.5951 3.557C11.5352 4.49716 12.0531 5.74729 12.0531 7.07686C12.0531 8.40665 11.5352 9.65655 10.5951 10.5967C9.6549 11.5369 8.405 12.0547 7.07521 12.0547C5.74564 12.0547 4.49551 11.5369 3.55535 10.5967Z" fill="#676767"/>
</svg>
