<svg width="17" height="18" viewBox="0 0 17 18" fill="none" xmlns="http://www.w3.org/2000/svg">
<path d="M8.5 6.72461C9.66602 6.72461 10.6094 7.66797 10.6094 8.83398C10.6094 10 9.66602 10.9434 8.5 10.9434C7.33398 10.9434 6.39062 10 6.39062 8.83398C6.39062 7.66797 7.33398 6.72461 8.5 6.72461ZM6.39062 3.67773C6.39062 4.84375 7.33398 5.78711 8.5 5.78711C9.66602 5.78711 10.6094 4.84375 10.6094 3.67773C10.6094 2.51172 9.66602 1.56836 8.5 1.56836C7.33398 1.56836 6.39062 2.51172 6.39062 3.67773ZM6.39062 13.9902C6.39062 15.1562 7.33398 16.0996 8.5 16.0996C9.66602 16.0996 10.6094 15.1562 10.6094 13.9902C10.6094 12.8242 9.66602 11.8809 8.5 11.8809C7.33398 11.8809 6.39062 12.8242 6.39062 13.9902Z" fill="#676767"/>
</svg>
