<svg width="30" height="20" viewBox="0 0 30 20" fill="none" xmlns="http://www.w3.org/2000/svg">
<g clip-path="url(#clip0_2219_844)">
<path d="M18.9581 3.48462H11.0442V16.5134H18.9581V3.48462Z" fill="#FF5F00"/>
<path d="M11.8593 9.99982C11.8584 8.74526 12.1405 7.50692 12.6844 6.3785C13.2283 5.25009 14.0198 4.26117 14.9988 3.48658C13.7862 2.52599 12.3299 1.92865 10.7965 1.76284C9.26297 1.59703 7.71414 1.86944 6.32698 2.54893C4.93982 3.22843 3.7703 4.28759 2.95208 5.60537C2.13386 6.92315 1.69995 8.44638 1.69995 10.001C1.69995 11.5556 2.13386 13.0788 2.95208 14.3966C3.7703 15.7143 4.93982 16.7735 6.32698 17.453C7.71414 18.1325 9.26297 18.4049 10.7965 18.2391C12.3299 18.0733 13.7862 17.4759 14.9988 16.5154C14.0195 15.7405 13.2278 14.7512 12.6839 13.6224C12.14 12.4936 11.858 11.2548 11.8593 9.99982Z" fill="#EB001B"/>
<path d="M27.5135 15.1345V14.8675H27.6277V14.8123H27.356V14.8675H27.4633V15.1345H27.5135ZM28.0409 15.1345V14.8123H27.9587L27.8628 15.0424L27.7669 14.8123H27.6847V15.1345H27.7441V14.8905L27.8332 15.0999H27.8948L27.9839 14.8905V15.1345H28.0409Z" fill="#F79E1B"/>
<path d="M28.2989 9.9999C28.2989 11.5546 27.8649 13.0779 27.0465 14.3958C26.2282 15.7136 25.0585 16.7727 23.6711 17.4521C22.2838 18.1315 20.7348 18.4038 19.2012 18.2377C17.6677 18.0717 16.2114 17.474 14.9988 16.5131C15.9775 15.7379 16.7687 14.7487 17.3128 13.6202C17.8569 12.4917 18.1396 11.2534 18.1396 9.99875C18.1396 8.74408 17.8569 7.50579 17.3128 6.37731C16.7687 5.24883 15.9775 4.25964 14.9988 3.48437C16.2114 2.52347 17.6677 1.92584 19.2012 1.7598C20.7348 1.59375 22.2838 1.86598 23.6711 2.54538C25.0585 3.22478 26.2282 4.28392 27.0465 5.60174C27.8649 6.91957 28.2989 8.44289 28.2989 9.9976V9.9999Z" fill="#F79E1B"/>
</g>
<defs>
<clipPath id="clip0_2219_844">
<rect width="30" height="20" fill="white"/>
</clipPath>
</defs>
</svg>
