<svg width="75" height="20" viewBox="0 0 75 20" fill="none" xmlns="http://www.w3.org/2000/svg">
<path d="M27.9502 4.09033H23.8138C23.5307 4.09033 23.29 4.29639 23.2458 4.57639L21.5728 15.2049C21.5396 15.4146 21.7017 15.6037 21.914 15.6037H23.8888C24.1718 15.6037 24.4125 15.3976 24.4567 15.117L24.9079 12.2503C24.9515 11.9697 25.1928 11.7637 25.4752 11.7637H26.7847C29.5095 11.7637 31.0821 10.4425 31.4928 7.82427C31.6779 6.67882 31.5007 5.77882 30.9654 5.14851C30.3775 4.45639 29.3347 4.09033 27.9502 4.09033ZM28.4275 7.97215C28.2013 9.45942 27.0672 9.45942 25.9706 9.45942H25.3464L25.7843 6.68185C25.8103 6.51397 25.9555 6.39033 26.1248 6.39033H26.4109C27.1579 6.39033 27.8625 6.39033 28.2267 6.817C28.4438 7.07154 28.5103 7.44973 28.4275 7.97215Z" fill="#253B80"/>
<path d="M40.3149 7.92422H38.3341C38.1653 7.92422 38.0196 8.04785 37.9935 8.21573L37.9058 8.77088L37.7673 8.56967C37.3385 7.94603 36.3823 7.73755 35.4278 7.73755C33.2389 7.73755 31.3694 9.39876 31.0052 11.7291C30.8159 12.8915 31.0851 14.003 31.7431 14.7782C32.3468 15.4909 33.2105 15.7879 34.2381 15.7879C36.0018 15.7879 36.9798 14.6515 36.9798 14.6515L36.8915 15.203C36.8583 15.4139 37.0204 15.603 37.2314 15.603H39.0157C39.2994 15.603 39.5389 15.3969 39.5837 15.1163L40.6542 8.323C40.6881 8.11391 40.5266 7.92422 40.3149 7.92422ZM37.5538 11.7872C37.3627 12.9212 36.4645 13.6824 35.3189 13.6824C34.7437 13.6824 34.2841 13.4976 33.9889 13.1472C33.6962 12.7994 33.5849 12.3042 33.678 11.7527C33.8564 10.6285 34.7698 9.8424 35.8978 9.8424C36.4603 9.8424 36.9175 10.0297 37.2187 10.383C37.5206 10.74 37.6403 11.2382 37.5538 11.7872Z" fill="#253B80"/>
<path d="M50.8645 7.92432H48.874C48.6841 7.92432 48.5056 8.01886 48.398 8.17704L45.6526 12.2292L44.4889 8.33523C44.4157 8.09159 44.1913 7.92432 43.9373 7.92432H41.9812C41.7435 7.92432 41.5784 8.15704 41.654 8.38129L43.8466 14.8286L41.7853 17.7443C41.6232 17.974 41.7865 18.2898 42.0665 18.2898H44.0546C44.2433 18.2898 44.4199 18.1976 44.527 18.0425L51.1476 8.46674C51.306 8.23765 51.1433 7.92432 50.8645 7.92432Z" fill="#253B80"/>
<path d="M57.4549 4.09033H53.3178C53.0353 4.09033 52.7946 4.29639 52.7504 4.57639L51.0775 15.2049C51.0442 15.4146 51.2063 15.6037 51.4174 15.6037H53.5404C53.7375 15.6037 53.9063 15.4594 53.9371 15.2631L54.4119 12.2503C54.4555 11.9697 54.6968 11.7637 54.9793 11.7637H56.2882C59.0136 11.7637 60.5855 10.4425 60.9968 7.82427C61.1825 6.67882 61.0041 5.77882 60.4688 5.14851C59.8815 4.45639 58.8394 4.09033 57.4549 4.09033ZM57.9321 7.97215C57.7065 9.45942 56.5724 9.45942 55.4752 9.45942H54.8517L55.2902 6.68185C55.3162 6.51397 55.4601 6.39033 55.6301 6.39033H55.9162C56.6625 6.39033 57.3678 6.39033 57.7319 6.817C57.949 7.07154 58.015 7.44973 57.9321 7.97215Z" fill="#179BD7"/>
<path d="M69.8189 7.92422H67.8393C67.6693 7.92422 67.5248 8.04785 67.4994 8.21573L67.4117 8.77088L67.2726 8.56967C66.8437 7.94603 65.8881 7.73755 64.9336 7.73755C62.7447 7.73755 60.8758 9.39876 60.5117 11.7291C60.323 12.8915 60.5909 14.003 61.249 14.7782C61.8538 15.4909 62.7163 15.7879 63.7439 15.7879C65.5076 15.7879 66.4857 14.6515 66.4857 14.6515L66.3973 15.203C66.3641 15.4139 66.5262 15.603 66.7385 15.603H68.5221C68.8046 15.603 69.0453 15.3969 69.0895 15.1163L70.1607 8.323C70.1933 8.11391 70.0312 7.92422 69.8189 7.92422ZM67.0578 11.7872C66.8679 12.9212 65.9685 13.6824 64.823 13.6824C64.249 13.6824 63.7881 13.4976 63.4929 13.1472C63.2002 12.7994 63.0901 12.3042 63.182 11.7527C63.3617 10.6285 64.2738 9.8424 65.4018 9.8424C65.9643 9.8424 66.4215 10.0297 66.7228 10.383C67.0258 10.74 67.1455 11.2382 67.0578 11.7872Z" fill="#179BD7"/>
<path d="M72.1542 4.38172L70.4564 15.2048C70.4232 15.4144 70.5853 15.6035 70.7964 15.6035H72.5032C72.7869 15.6035 73.0276 15.3975 73.0711 15.1169L74.7453 4.48899C74.7786 4.2793 74.6165 4.0896 74.4054 4.0896H72.4941C72.3254 4.09021 72.1802 4.21384 72.1542 4.38172Z" fill="#179BD7"/>
<path d="M4.39475 17.6691L4.71108 15.6558L4.00644 15.6394H0.641724L2.98003 0.78303C2.98729 0.738181 3.01088 0.696363 3.04535 0.666666C3.07983 0.636969 3.12398 0.620605 3.16995 0.620605H8.84333C10.7268 0.620605 12.0266 1.01333 12.7052 1.78848C13.0234 2.15212 13.226 2.53212 13.324 2.9503C13.4268 3.38909 13.4286 3.91333 13.3282 4.55273L13.321 4.59939V5.00909L13.6391 5.1897C13.907 5.33212 14.1199 5.49515 14.2833 5.68182C14.5554 5.99273 14.7314 6.38788 14.8058 6.85636C14.8826 7.33818 14.8572 7.91152 14.7314 8.56061C14.5863 9.30727 14.3516 9.95758 14.0347 10.4897C13.7431 10.98 13.3718 11.3867 12.9308 11.7018C12.5099 12.0012 12.0097 12.2285 11.4441 12.3739C10.8962 12.517 10.2714 12.5891 9.58608 12.5891H9.14454C8.82882 12.5891 8.52217 12.703 8.28144 12.9073C8.04011 13.1158 7.88043 13.4006 7.83144 13.7121L7.79817 13.8933L7.2393 17.4418L7.2139 17.5721C7.20725 17.6133 7.19575 17.6339 7.17882 17.6479C7.1637 17.6606 7.14192 17.6691 7.12075 17.6691H4.39475Z" fill="#253B80"/>
<path d="M13.9403 4.64673C13.9234 4.75521 13.904 4.86612 13.8822 4.98006C13.134 8.82915 10.5744 10.1589 7.30522 10.1589H5.6407C5.2409 10.1589 4.90401 10.4498 4.84171 10.8449L3.98949 16.2607L3.74816 17.7958C3.70764 18.0552 3.90723 18.2892 4.16852 18.2892H7.12074C7.47034 18.2892 7.76732 18.0346 7.82236 17.6892L7.85139 17.5389L8.40723 14.0043L8.44292 13.8104C8.49736 13.4637 8.79494 13.2092 9.14453 13.2092H9.58607C12.4463 13.2092 14.6855 12.0455 15.3399 8.67825C15.6133 7.27158 15.4718 6.09703 14.7484 5.27097C14.5294 5.02188 14.2578 4.81521 13.9403 4.64673Z" fill="#179BD7"/>
<path d="M13.1577 4.33403C13.0434 4.3007 12.9254 4.2704 12.8044 4.24312C12.6829 4.21646 12.5583 4.19282 12.43 4.17221C11.9813 4.09949 11.4895 4.06494 10.9627 4.06494H6.51593C6.40645 4.06494 6.30242 4.08979 6.20928 4.13464C6.00424 4.23343 5.85182 4.42797 5.81492 4.66615L4.86895 10.6698L4.84174 10.8449C4.90403 10.4498 5.24093 10.1589 5.64073 10.1589H7.30524C10.5744 10.1589 13.1341 8.82858 13.8823 4.98009C13.9046 4.86615 13.9234 4.75524 13.9403 4.64676C13.751 4.54615 13.546 4.46009 13.3252 4.38676C13.2708 4.36858 13.2145 4.351 13.1577 4.33403Z" fill="#222D65"/>
<path d="M5.81491 4.66606C5.85181 4.42788 6.00423 4.23333 6.20927 4.13515C6.30302 4.0903 6.40644 4.06545 6.51592 4.06545H10.9627C11.4895 4.06545 11.9812 4.1 12.43 4.17273C12.5583 4.19333 12.6829 4.21697 12.8044 4.24364C12.9254 4.27091 13.0433 4.30121 13.1577 4.33455C13.2145 4.35152 13.2708 4.36909 13.3258 4.38667C13.5466 4.46 13.7516 4.54667 13.9409 4.64667C14.1635 3.22424 13.9391 2.25576 13.1716 1.37879C12.3254 0.413333 10.7982 0 8.84394 0H3.17056C2.77136 0 2.43084 0.290909 2.36915 0.686667L0.00604163 15.6958C-0.040531 15.9927 0.188098 16.2606 0.486888 16.2606H3.98951L4.86895 10.6697L5.81491 4.66606Z" fill="#253B80"/>
</svg>
