<svg width="20" height="20" viewBox="0 0 20 20" fill="none" xmlns="http://www.w3.org/2000/svg">
<g clip-path="url(#clip0_2219_836)">
<path d="M17.8806 8.45627C19.9501 5.65445 19.4911 5.60196 20 4.72656H16.0341C16.0341 4.72656 15.7523 5.70511 15.6662 5.88028C14.9045 7.4295 13.196 9.75403 12.1626 9.99161C11.1452 10.2257 11.2802 7.8212 11.3429 6.77963C11.402 5.81421 11.3919 5.47638 11.3635 5.3096C11.322 5.06592 11.1176 4.88815 10.8722 4.85718C10.3664 4.79309 9.44855 4.70245 8.42072 4.75006L7.50122 4.78058C7.86377 5.59158 8.10867 5.34302 8.24219 6.28128C8.39294 7.37976 8.33359 10.0526 7.25174 10.0526C5.51743 10.0526 3.57071 4.8439 3.50876 4.72656H0L0.321045 5.52994C2.90848 12.0073 6.14456 15.0073 10.5722 15.2568L11.1484 15.2734L11.1896 14.7139C11.2518 13.8498 11.6853 12.6059 12.4542 12.6059C13.5902 12.6059 13.9185 12.9367 14.6677 13.8625C15.388 14.7501 15.8844 15.2734 17.0468 15.2734H20L19.5789 14.4266C18.9212 13.1062 17.6021 11.9743 17.0869 11.3177C16.9003 11.0706 16.7166 10.6798 16.9067 10.2071C17.0622 9.79538 17.5252 8.93677 17.8806 8.45627Z" fill="#FAA525"/>
</g>
<defs>
<clipPath id="clip0_2219_836">
<rect width="20" height="20" fill="white"/>
</clipPath>
</defs>
</svg>
