<svg width="33" height="28" viewBox="0 0 33 28" fill="none" xmlns="http://www.w3.org/2000/svg">
<circle cx="16.0073" cy="3.80679" r="3.75213" fill="#494949"/>
<path fill-rule="evenodd" clip-rule="evenodd" d="M25.6448 13.4002L29.1418 14.1296C30.6793 14.4509 31.6763 15.9747 31.3564 17.5164L30.4767 21.7125C30.1581 23.25 28.633 24.2456 27.0968 23.9257L25.9716 23.6899C24.2314 26.2231 20.453 27.9868 16.0666 27.9868C13.1998 27.9868 10.4983 27.2476 8.45337 25.9073C7.47158 25.2647 6.70484 24.5132 6.15053 23.6941L5.04325 23.9257C3.50568 24.247 1.98058 23.25 1.66203 21.7125L0.783611 17.5164C0.462314 15.9747 1.45932 14.4509 2.99548 14.1296L6.49529 13.4002C7.6881 13.1506 8.86577 13.7008 9.48765 14.6757C10.0958 14.3641 10.7384 14.0965 11.4223 13.8787V11.7882C11.4223 10.2148 12.7048 8.92823 14.2809 8.92823H17.8565C19.4243 8.92823 20.7123 10.2148 20.7109 11.7882V13.8677C21.4018 14.0897 22.0513 14.3572 22.6553 14.6675C23.2771 13.6967 24.4534 13.1506 25.6448 13.4002ZM9.23795 24.709C11.0485 25.9018 13.4755 26.554 16.0652 26.554C19.6959 26.554 22.8552 25.2634 24.4519 23.3728L23.5956 23.1935C22.0567 22.8736 21.0611 21.3499 21.3797 19.811L22.1781 15.9954C21.723 15.7527 21.2321 15.5389 20.7095 15.3528V16.0767C20.7095 17.646 19.4243 18.9339 17.855 18.9339H14.2794C12.706 18.9339 11.4209 17.6474 11.4209 16.0767V15.3886C10.9079 15.5734 10.4253 15.7899 9.96608 16.0367L10.7535 19.8096C11.0748 21.3485 10.0778 22.8722 8.53884 23.1921L7.69079 23.37C8.10305 23.8527 8.61741 24.3036 9.23795 24.709Z" fill="#494949"/>
<circle cx="28.3806" cy="8.73933" r="3.75213" fill="#494949"/>
<path d="M4.52192 12.4128C6.55173 11.9881 7.84797 9.9983 7.42874 7.96984C7.00126 5.94278 5.01556 4.64103 2.98435 5.06576C0.957289 5.48909 -0.344455 7.47753 0.0802757 9.506C0.503664 11.5358 2.49211 12.8362 4.52192 12.4128Z" fill="#494949"/>
</svg>
