<svg width="21" height="21" viewBox="0 0 21 21" fill="none" xmlns="http://www.w3.org/2000/svg">
<path d="M10.4357 16.5828C12.008 16.5828 13.2872 15.3035 13.2872 13.7312C13.2872 12.1589 12.008 10.8797 10.4357 10.8797C8.86322 10.8797 7.58411 12.1589 7.58411 13.7312C7.58411 15.3035 8.86322 16.5828 10.4357 16.5828Z" fill="#676767"/>
<path d="M13.1284 16.7654C12.5538 17.2758 11.8338 17.6261 11.0392 17.7452V19.7614L13.1284 20.6167V16.7654Z" fill="#676767"/>
<path d="M9.83193 17.745C9.03729 17.6261 8.31736 17.2758 7.74292 16.7654V20.6167L9.83193 19.7614V17.745Z" fill="#676767"/>
<path d="M0 0V14.9306H6.55772C6.44022 14.5515 6.37683 14.1487 6.37683 13.7312C6.37683 13.3795 6.42181 13.0384 6.50628 12.7126H3.40682L3.25802 12.3255C3.11913 11.9637 2.83301 11.674 2.47281 11.5305L2.09263 11.3791V3.5498L2.47281 3.39832C2.83254 3.25503 3.1185 2.96577 3.25754 2.60462L3.4065 2.21799H17.2096L17.3584 2.60462C17.4964 2.96262 17.7793 3.25062 18.1348 3.39502L18.5114 3.54791V11.381L18.1348 11.5338C17.7789 11.6784 17.4957 11.9669 17.3579 12.3255L17.2093 12.7126H14.365C14.4494 13.0382 14.4944 13.3795 14.4944 13.7312C14.4944 14.1487 14.431 14.5514 14.3135 14.9306H20.604V0L0 0Z" fill="#676767"/>
<path fill-rule="evenodd" clip-rule="evenodd" d="M17.3041 10.6053V4.32352C16.9408 4.10111 16.6361 3.79171 16.4192 3.42522H4.19685C3.97758 3.79612 3.66866 4.10803 3.2998 4.33076V10.5981C3.66929 10.8213 3.97853 11.1339 4.19795 11.5054H7.04323C7.76945 10.4023 9.01883 9.67244 10.4356 9.67244C11.8523 9.67244 13.1015 10.4023 13.8278 11.5054H16.4181C16.6351 11.1381 16.9401 10.8282 17.3041 10.6053ZM13.964 8.46427H6.63993V7.25704H13.964V8.46427ZM5.38253 6.11682H15.2214V4.9096H5.38253V6.11682Z" fill="#676767"/>
</svg>
