<svg width="31" height="28" viewBox="0 0 31 28" fill="none" xmlns="http://www.w3.org/2000/svg">
<path d="M26.8971 19.7536L30.72 15.9309L26.8971 12.108L27.513 11.4921C28.5787 10.4264 28.5787 8.6925 27.5133 7.6268C26.9969 7.1107 26.3105 6.82641 25.5804 6.82641C24.8505 6.82641 24.164 7.1107 23.648 7.6268L23.032 8.24273L19.2091 4.41984L18.0811 5.54812V7.33125C20.0765 7.8068 21.5651 9.60469 21.5651 11.7436C21.5651 13.8827 20.0765 15.6806 18.0811 16.1559V21.6851H14.7717L14.1119 22.3448L19.2091 27.4418L23.032 23.6189L23.5629 24.15C24.6286 25.2157 26.3625 25.2157 27.4282 24.15C28.4939 23.0843 28.4939 21.3504 27.4282 20.2847L26.8971 19.7536Z" fill="#5525B5"/>
<path d="M16.279 19.8832V14.4769H17.0297C18.537 14.4769 19.763 13.2509 19.763 11.7436C19.763 10.2366 18.537 9.01055 17.0297 9.01055H16.279V3.60422H10.8727V2.73328C10.8727 1.22602 9.64664 0 8.13937 0C6.63234 0 5.40633 1.22602 5.40633 2.73328V3.60422H0V9.01055H0.750938C2.07328 9.01055 3.17906 9.95437 3.43031 11.2038C3.5393 11.3562 3.60422 11.5423 3.60422 11.7436C3.60422 11.9449 3.5393 12.131 3.43031 12.2836C3.17906 13.5328 2.07328 14.4769 0.750938 14.4769H0V19.8832H5.40633V19.012C5.40633 17.505 6.63234 16.279 8.13937 16.279C9.64664 16.279 10.8727 17.505 10.8727 19.012V19.8832H16.279Z" fill="#5525B5"/>
</svg>
