<svg width="20" height="20" viewBox="0 0 20 20" fill="none" xmlns="http://www.w3.org/2000/svg">
<path d="M16.279 19.8832V14.4769H17.0297C18.537 14.4769 19.763 13.2509 19.763 11.7436C19.763 10.2366 18.537 9.01055 17.0297 9.01055H16.279V3.60422H10.8727V2.73328C10.8727 1.22602 9.64664 0 8.13937 0C6.63234 0 5.40633 1.22602 5.40633 2.73328V3.60422H0V9.01055H0.750938C2.07328 9.01055 3.17906 9.95437 3.43031 11.2038C3.5393 11.3562 3.60422 11.5423 3.60422 11.7436C3.60422 11.9449 3.5393 12.131 3.43031 12.2836C3.17906 13.5328 2.07328 14.4769 0.750938 14.4769H0V19.8832H5.40633V19.012C5.40633 17.505 6.63234 16.279 8.13937 16.279C9.64664 16.279 10.8727 17.505 10.8727 19.012V19.8832H16.279Z" fill="#5525B5"/>
</svg>
