<svg width="31" height="28" viewBox="0 0 31 28" fill="none" xmlns="http://www.w3.org/2000/svg">
<path fill-rule="evenodd" clip-rule="evenodd" d="M26.339 3.80937C25.6454 2.07456 23.9904 0.954427 22.1226 0.954427H21.8574V0.0461655H9.1426V0.954366H8.87739C7.00955 0.954366 5.35456 2.07456 4.66097 3.80931L1.74635 10.9446H0V12.761H1.30643C1.72413 12.761 2.08606 13.044 2.18803 13.4484L5.19315 25.2293C5.49643 26.4435 6.5838 27.2922 7.83616 27.2922H23.1638C24.4162 27.2922 25.5641 26.4434 25.8674 25.2284L28.812 13.4492C28.914 13.0439 29.2758 12.761 29.6936 12.761H31V10.9446H29.2537L26.339 3.80937ZM10.959 23.6594H9.1426V14.5774H10.959V23.6594ZM14.5918 23.6594H16.4082V14.5774H14.5918V23.6594ZM21.8574 23.6594H20.041V14.5774H21.8574V23.6594ZM8.87739 2.77083C7.75726 2.77083 6.76387 3.44311 6.34794 4.48343L3.70286 10.9446H27.2971L24.6521 4.48337C24.2362 3.44305 23.2429 2.77077 22.1227 2.77077H21.8575V3.67897H9.1426V2.77083H8.87739Z" fill="#494949"/>
</svg>
