<svg width="26" height="28" viewBox="0 0 26 28" fill="none" xmlns="http://www.w3.org/2000/svg">
<path fill-rule="evenodd" clip-rule="evenodd" d="M3.91522 18.5571C3.91522 13.6775 7.8851 9.65398 12.7647 9.65398C17.6443 9.65398 21.6142 13.6775 21.6142 18.5571C21.6142 23.4367 17.6443 27.4602 12.7647 27.4602C7.8851 27.4602 3.91522 23.4367 3.91522 18.5571ZM12.7647 21.9762L16.3103 23.8389L15.6331 19.8919L18.5015 17.0958L14.5379 16.5191L12.7647 12.928L10.9915 16.5191L7.02799 17.0957L9.89635 19.8919L9.21912 23.8389L12.7647 21.9762Z" fill="#494949"/>
<path d="M13.4695 17.9899L12.7648 16.5624L12.06 17.9899L10.4848 18.2193L11.6248 19.3294L11.3561 20.8991L12.7648 20.1583L14.1734 20.8991L13.9047 19.3294L15.0447 18.2193L13.4695 17.9899Z" fill="#494949"/>
<path d="M8.89728 4.82699H16.632L20.8557 0H4.67377L8.89728 4.82699Z" fill="#494949"/>
<path d="M22.3221 0.767599L15.6028 8.44686C17.1996 8.89829 18.6382 9.71957 19.8277 10.813L25.5275 3.97299L22.3221 0.767599Z" fill="#494949"/>
<path d="M5.70172 10.813C6.8913 9.71957 8.3298 8.89829 9.92651 8.44686L3.20729 0.767653L0.00195312 3.97299L5.70172 10.813Z" fill="#494949"/>
</svg>
